<?xml version="1.0" encoding="UTF-8"?><svg id="Layer_1" xmlns="http://www.w3.org/2000/svg" viewBox="0 0 578.74 504.54"><defs><style>.cls-1{fill:#660d0d;}</style></defs><path class="cls-1" d="m391.09,504.54c-1-1.18-1.06-2.43-.28-3.76.94-1.6,1.73-3.3,2.81-4.79,16.18-22.34,32.22-44.79,48.66-66.93,32.26-43.46,64.74-86.76,97.15-130.11,4.99-6.67,8.16-14.03,8.84-22.4.52-6.44-.75-12.45-4.8-17.53-7.79-9.75-17.81-14.34-30.43-12.42-.56.08-1.12.19-1.68.21-1.6.07-2.38-1.06-1.52-2.43.58-.93,1.51-1.65,2.36-2.39,4.89-4.28,9.28-8.98,12.37-14.75,3.76-7.02,4.56-14.39,1.04-21.61-2.45-5.02-5.39-9.95-8.89-14.29-6.33-7.85-14.85-8.99-24.12-6.22-8.7,2.6-15.97,7.63-22.56,13.67-4.81,4.41-9.38,9.09-14.1,13.62-1.06,1.02-2.28,1.87-3.42,2.8-.26-.13-.51-.26-.77-.4.13-1.11.08-2.28.42-3.32,3-9.22,1.72-17.92-4.35-25.31-11.49-13.99-26.98-15.57-42.79-5.62-3.23,2.03-6.05,4.84-8.77,7.57-31.4,31.49-62.74,63.03-94.1,94.55-12.24,12.3-24.52,24.55-36.72,36.88-3.01,3.04-5.71,6.37-8.69,9.43-3.47,3.56-7.17,6.89-10.64,10.46-5.07,5.2-9.92,10.61-15.03,15.76-22.66,22.87-45.31,45.76-68.16,68.44-4.02,3.99-8.75,7.39-13.58,10.37-5.18,3.2-10.92,3.65-16.65.83-3.41-1.68-5.04-4.29-4.93-8.12.2-6.78,2.03-13.23,4.21-19.54,4.96-14.38,10.19-28.68,15.38-42.98,4.64-12.78,9.5-25.49,14.04-38.31,3.62-10.23,4.55-20.75.44-31.01-5.73-14.31-16.55-22.87-31.54-26.2-2.82-.63-5.68-1.12-8.54-1.51-2.19-.3-3.94.51-4.98,2.6-1.36,2.74-2.99,5.36-4.12,8.19-8.46,21.16-16.89,42.33-25.18,63.55-7.27,18.6-14.34,37.28-21.5,55.92-4.88,12.69-9.79,25.38-14.64,38.08-1.37,3.59-2.6,7.24-4.18,11.68-1.84-2.18-3.37-3.68-4.53-5.42-14.04-20.91-24.02-43.65-31.14-67.8-3.29-11.15-5.48-22.5-7.85-33.82-.93-4.46-.44-9.22-1.32-13.7-2.53-12.78-3.36-25.68-3.28-38.65.04-6.6.35-13.23,1.03-19.8,1.45-14.13,3.26-28.19,6.2-42.13,3.42-16.25,9.01-31.7,15.29-46.97,7.27-17.66,16.3-34.41,27.17-50.06,28.34-40.81,64.26-73.12,108.62-95.89,21.97-11.27,44.93-19.8,68.83-25.84,4.05-1.02,8.24-1.53,12.37-2.17,6.91-1.07,13.82-2.09,20.74-3.08,1.91-.27,3.85-.4,5.78-.53,7.12-.47,14.24-.98,21.37-1.33,11.04-.55,22,.89,32.91,2.14,10.71,1.23,21.5,2.62,31.93,5.22,54.7,13.63,103.11,39.14,143.24,79,27.37,27.18,48.15,59,62.27,95.04,5.83,14.88,10.38,30.16,14.16,45.63,3.2,13.06,4.89,26.44,6.08,39.83.99,11.14,1.88,22.35,1.76,33.52-.14,12.55-1.46,25.06-3.28,37.54-2.43,16.59-6.31,32.69-12.55,48.22-1.06,2.64-2.62,5.07-4.14,7.97-1.29-1.96-2.11-3.35-3.07-4.63-5.64-7.56-12.93-10.4-22.42-8.97-4.36.65-7.57,2.59-10.51,5.26-15.72,14.25-31.56,28.38-46.92,43-19.23,18.31-37.87,37.22-57.09,55.54-7.51,7.15-15.62,13.75-24.8,18.83-.68.38-1.25.94-1.88,1.42h-.97Z"/></svg>